<?xml version="1.0" standalone="no"?>
<!DOCTYPE svg PUBLIC "-//W3C//DTD SVG 20010904//EN"
 "http://www.w3.org/TR/2001/REC-SVG-20010904/DTD/svg10.dtd">
<svg version="1.0" xmlns="http://www.w3.org/2000/svg"
 width="260.000000pt" height="260.000000pt" viewBox="0 0 260.000000 260.000000"
 preserveAspectRatio="xMidYMid meet">
<metadata>
Created by potrace 1.11, written by Peter Selinger 2001-2013
</metadata>
<g transform="translate(0.000000,260.000000) scale(0.100000,-0.100000)"
fill="#000000" stroke="none">
<path d="M2135 2587 c-86 -34 -144 -91 -171 -165 -18 -50 -17 -145 0 -187 17
-39 10 -43 -34 -20 -16 9 -42 17 -57 19 -16 2 -84 17 -153 34 -69 17 -147 34
-175 38 -27 3 -59 8 -70 11 -51 10 -217 3 -276 -12 -69 -18 -135 -53 -165 -87
-15 -17 -12 -17 17 5 38 28 102 58 134 63 11 2 40 7 65 12 83 16 240 4 240
-19 0 -5 9 -9 21 -9 12 0 49 -7 83 -16 33 -9 66 -17 71 -18 17 -3 51 -25 39
-26 -6 0 -53 9 -104 20 -52 11 -96 16 -99 11 -3 -4 -15 -6 -26 -4 -57 12 -194
3 -257 -17 -38 -11 -68 -23 -68 -25 0 -2 28 -1 63 2 137 11 222 4 307 -26 30
-10 69 -21 85 -24 39 -6 140 -42 235 -82 181 -77 291 -181 424 -398 78 -127
118 -206 135 -262 18 -59 53 -135 61 -130 3 2 6 20 5 39 -2 36 7 46 21 25 18
-29 22 -84 9 -132 -7 -29 -12 -53 -10 -55 2 -2 15 9 30 25 28 30 53 80 58 118
1 13 6 27 10 31 12 12 8 73 -9 138 -15 61 -68 168 -150 304 -47 77 -51 82
-157 204 l-68 78 33 0 c41 1 103 23 129 46 27 25 24 37 -6 18 -36 -23 -31 -12
15 36 44 46 53 71 18 48 -94 -61 -198 -70 -268 -24 -43 28 -80 99 -80 153 0
92 81 183 176 196 73 10 173 -62 190 -137 4 -17 9 -25 11 -18 8 21 -46 120
-75 140 -15 11 -40 24 -57 30 -23 8 -25 11 -10 11 12 1 45 -14 75 -31 66 -40
102 -103 104 -184 1 -58 18 -47 18 11 0 91 -68 198 -149 233 -50 22 -145 26
-188 9z"/>
<path d="M1260 2559 c-77 -12 -93 -16 -169 -44 -145 -53 -341 -173 -454 -279
-15 -14 -29 -26 -31 -26 -2 0 -4 22 -5 50 -1 58 -19 107 -50 134 -25 23 -27
15 -5 -19 10 -15 12 -25 5 -25 -6 0 -11 4 -11 8 0 11 -71 82 -82 82 -5 0 0
-14 12 -30 29 -41 45 -143 31 -196 -46 -171 -274 -181 -355 -15 -52 108 27
239 151 249 35 3 50 8 41 13 -18 10 -89 -6 -139 -31 -26 -14 -48 -37 -69 -73
-16 -28 -30 -48 -30 -43 0 17 42 96 51 96 5 0 9 6 9 14 0 8 25 27 55 42 43 21
70 27 118 27 51 -1 57 1 37 9 -14 5 -54 7 -90 4 -213 -19 -305 -280 -152 -434
72 -73 161 -99 260 -77 28 7 52 11 52 8 0 -2 -17 -38 -38 -81 -93 -185 -159
-433 -155 -577 3 -130 41 -241 103 -300 42 -40 50 -24 10 22 -37 42 -65 100
-76 157 -5 28 -4 37 5 32 8 -5 11 8 11 43 0 39 3 49 14 45 15 -6 21 8 31 70 9
66 16 55 11 -17 -2 -37 -1 -69 3 -71 13 -8 32 10 40 40 5 16 13 28 20 27 6 -2
11 5 12 15 4 89 53 251 124 413 54 122 100 194 164 256 109 107 352 258 461
289 30 8 66 20 80 26 14 6 46 12 71 13 25 1 56 9 68 17 23 16 23 16 2 23 -30
9 -26 27 4 19 17 -4 25 -2 25 7 0 10 16 14 60 13 47 0 57 2 49 12 -38 46 -181
78 -279 63z m235 -67 c-3 -3 -11 0 -18 7 -9 10 -8 11 6 5 10 -3 15 -9 12 -12z
m-106 -68 c2 -2 -22 -4 -55 -3 -41 0 -53 3 -39 9 18 7 84 3 94 -6z"/>
<path d="M367 2449 c7 -7 15 -10 18 -7 3 3 -2 9 -12 12 -14 6 -15 5 -6 -5z"/>
<path d="M2410 2341 c0 -6 5 -13 10 -16 6 -3 10 1 10 9 0 9 -4 16 -10 16 -5 0
-10 -4 -10 -9z"/>
<path d="M2411 2294 c0 -11 3 -14 6 -6 3 7 2 16 -1 19 -3 4 -6 -2 -5 -13z"/>
<path d="M2395 2260 c-3 -5 -1 -10 4 -10 6 0 11 5 11 10 0 6 -2 10 -4 10 -3 0
-8 -4 -11 -10z"/>
<path d="M2210 1574 c0 -3 18 -26 39 -52 44 -53 85 -162 63 -170 -7 -2 -12
-22 -12 -52 0 -42 -2 -47 -18 -43 -11 3 -19 -1 -19 -9 0 -28 -13 -102 -19
-107 -3 -3 -3 22 -1 55 7 91 -14 112 -39 41 -7 -18 -17 -31 -23 -29 -6 1 -11
-6 -12 -15 -1 -19 -1 -19 -19 -108 -38 -184 -156 -442 -247 -541 -104 -114
-378 -284 -513 -319 -36 -9 -71 -21 -77 -27 -7 -6 -33 -8 -58 -5 -25 4 -45 2
-45 -4 0 -9 33 -13 78 -9 12 1 22 -3 22 -8 0 -9 -65 -9 -99 -1 -7 2 -16 -2
-18 -8 -3 -7 2 -13 11 -13 9 0 16 -5 16 -11 0 -5 -10 -9 -22 -7 -13 2 -22 -2
-21 -8 2 -8 -10 -10 -34 -7 -27 4 -34 2 -28 -8 6 -8 4 -11 -6 -7 -68 26 -81
14 -21 -19 153 -86 370 -50 630 104 75 43 187 124 246 177 16 14 30 26 32 26
2 0 3 -22 2 -48 0 -56 20 -109 52 -137 l23 -20 -17 33 c-22 42 -8 41 24 -2 32
-43 60 -63 60 -41 0 8 -4 15 -8 15 -11 0 -29 55 -37 111 -13 88 23 163 97 200
73 37 167 19 226 -44 34 -36 61 -115 52 -148 -5 -15 -7 -29 -5 -31 2 -2 -9
-21 -24 -43 -29 -43 -92 -85 -128 -85 -13 0 -23 -5 -23 -11 0 -12 22 -6 93 23
45 20 77 53 104 108 l13 25 -6 -25 c-7 -30 -52 -99 -79 -122 -38 -31 -128 -50
-179 -36 -24 6 -27 5 -17 -5 7 -7 41 -12 86 -12 69 0 76 2 131 40 79 54 109
113 109 210 0 82 -20 130 -78 188 -69 69 -172 97 -264 71 -24 -7 -43 -10 -43
-8 0 3 15 35 34 72 155 308 201 634 115 804 -30 60 -99 131 -99 102z"/>
<path d="M73 1411 c-12 -15 -29 -53 -38 -84 -9 -32 -21 -55 -26 -52 -12 8 -5
-55 16 -134 19 -74 46 -130 121 -254 30 -49 54 -91 54 -94 0 -7 53 -73 138
-170 61 -71 62 -73 35 -73 -46 0 -101 -19 -133 -47 -36 -30 -33 -42 4 -18 36
24 33 15 -14 -35 -38 -41 -48 -60 -33 -60 4 0 16 9 27 19 28 26 125 50 178 45
58 -6 108 -42 136 -96 49 -99 10 -207 -92 -260 -73 -37 -155 -20 -210 44 -19
22 -38 54 -42 72 -4 17 -9 25 -11 18 -8 -21 46 -120 76 -141 15 -11 39 -23 54
-26 35 -9 45 -24 12 -17 -14 2 -48 18 -77 36 -65 39 -100 103 -102 183 0 54
-17 50 -18 -5 -2 -68 22 -127 74 -183 46 -51 91 -71 165 -75 86 -4 146 18 203
76 73 72 100 187 66 283 -15 41 -14 42 54 14 14 -6 29 -9 33 -8 5 1 23 -3 40
-9 45 -14 233 -57 287 -65 25 -4 59 -9 75 -11 43 -7 184 -7 225 1 74 13 117
28 162 56 51 33 83 64 54 53 -9 -3 -16 -9 -16 -13 0 -12 -98 -62 -128 -66 -15
-2 -45 -8 -67 -12 -75 -17 -245 -5 -245 18 0 5 -9 9 -21 9 -12 0 -49 7 -83 16
-33 9 -65 17 -71 18 -5 1 -19 7 -30 14 -25 15 -4 16 44 2 19 -5 53 -12 75 -15
23 -3 49 -8 59 -11 9 -3 17 -2 17 3 0 5 30 6 66 3 36 -3 76 -5 88 -4 73 7 160
27 186 43 14 9 -40 8 -141 -3 -36 -3 -189 17 -207 28 -4 3 -44 14 -88 26 -146
38 -326 114 -400 169 -45 32 -122 108 -169 166 -56 69 -192 300 -220 377 -41
109 -68 169 -74 162 -6 -6 -7 -11 -10 -59 -1 -27 -3 -28 -13 -11 -21 38 -27
87 -14 137 15 57 4 64 -31 20z"/>
<path d="M186 325 c-9 -26 -7 -32 5 -12 6 10 9 21 6 23 -2 3 -7 -2 -11 -11z"/>
<path d="M177 283 c-10 -10 -8 -33 2 -33 6 0 9 9 8 20 -1 23 -1 22 -10 13z"/>
<path d="M2230 149 c0 -5 11 -9 25 -9 14 0 25 2 25 4 0 2 -11 6 -25 8 -14 3
-25 1 -25 -3z"/>
</g>
</svg>
